<?xml version="1.0" encoding="UTF-8" standalone="no"?><!DOCTYPE svg PUBLIC "-//W3C//DTD SVG 1.1//EN" "http://www.w3.org/Graphics/SVG/1.1/DTD/svg11.dtd"><svg width="100%" height="100%" viewBox="0 0 24 24" version="1.1" xmlns="http://www.w3.org/2000/svg" xmlns:xlink="http://www.w3.org/1999/xlink" xml:space="preserve" xmlns:serif="http://www.serif.com/" style="fill-rule:evenodd;clip-rule:evenodd;stroke-linejoin:round;stroke-miterlimit:2;"><rect id="Browsertrix-Crawler---White" serif:id="Browsertrix Crawler - White" x="0" y="0" width="23.04" height="23.04" style="fill:none;"/><g id="Browsertrix-Crawler" serif:id="Browsertrix Crawler"><path id="Eye" d="M18.586,15.336c-0,-0 -4.516,-2.823 -5.78,-3.613c-0.071,-0.044 -0.113,-0.121 -0.113,-0.204c-0,-0.083 0.042,-0.16 0.113,-0.203c1.264,-0.791 5.779,-3.612 5.779,-3.612c0.694,1.106 1.095,2.415 1.095,3.816c-0,1.401 -0.401,2.709 -1.094,3.816Z" style="fill:#fff;"/><path id="C" d="M22.043,17.497c0.055,0.034 0.093,0.088 0.107,0.151c0.014,0.063 0.003,0.129 -0.032,0.183c-2.06,3.136 -5.609,5.209 -9.638,5.209c-6.358,-0 -11.52,-5.162 -11.52,-11.52c-0,-6.358 5.162,-11.52 11.52,-11.52c4.029,0 7.578,2.073 9.637,5.209c0.035,0.054 0.047,0.12 0.033,0.182c-0.014,0.063 -0.053,0.118 -0.107,0.152c-0.772,0.483 -3.458,2.161 -3.458,2.161c-1.273,-2.032 -3.532,-3.384 -6.105,-3.384c-3.974,0 -7.2,3.226 -7.2,7.2c-0,3.974 3.226,7.2 7.2,7.2c2.573,-0 4.832,-1.352 6.106,-3.384c-0,-0 2.685,1.678 3.457,2.161Z" style="fill:#fff;"/></g></svg>