<svg xmlns="http://www.w3.org/2000/svg" xml:space="preserve" fill-rule="evenodd"
  stroke-linejoin="round" stroke-miterlimit="2" clip-rule="evenodd" viewBox="0 0 24 24">
  <style>
    .b{fill: #0891b2;}.g{fill: #4d7c0f;}
    @media (prefers-color-scheme: dark) {
      .b{ fill: #0AAED7; }.g{ fill: #65A414;}
    }
  </style>
  <path class="b" d="m18.59 15.34-5.78-3.62a.24.24 0 0 1 0-.4l5.77-3.62a7.16 7.16 0 0 1 0 7.64Z"/>
  <path class="g" d="M22.04 17.5c.06.03.1.08.11.15.01.06 0 .13-.03.18a11.52 11.52 0 1 1 0-12.62.24.24 0 0 1-.08.33L18.58 7.7a7.2 7.2 0 1 0 0 7.64s2.7 1.67 3.46 2.16Z"/>
</svg>
